<svg xmlns="http://www.w3.org/2000/svg" xmlns:xlink="http://www.w3.org/1999/xlink" xmlns:lucid="lucid" width="1742" height="782"><g transform="translate(-79 -199)" lucid:page-tab-id="0_0"><path d="M0 0h1870.87v1322.84H0z" fill="#fff"/><path d="M1140 226a6 6 0 0 1 6-6h648a6 6 0 0 1 6 6v728a6 6 0 0 1-6 6h-648a6 6 0 0 1-6-6z" stroke="#3a414a" stroke-width="2" fill="#edf5ff"/><use xlink:href="#a" transform="matrix(1,0,0,1,1145,225) translate(243.65432098765433 19.555555555555557)"/><use xlink:href="#b" transform="matrix(1,0,0,1,1145,225) translate(319.4320987654321 19.555555555555557)"/><path d="M100 426a6 6 0 0 1 6-6h348a6 6 0 0 1 6 6v368a6 6 0 0 1-6 6H106a6 6 0 0 1-6-6z" stroke="#3a414a" stroke-width="2" fill="#e3fae3"/><use xlink:href="#c" transform="matrix(1,0,0,1,112,432) translate(121.48765432098764 19.555555555555557)"/><path d="M1400 386a6 6 0 0 1 6-6h328a6 6 0 0 1 6 6v528a6 6 0 0 1-6 6h-328a6 6 0 0 1-6-6z" stroke="#3a414a" stroke-width="2" fill="#fff"/><use xlink:href="#d" transform="matrix(1,0,0,1,1412,392) translate(122.08024691358025 19.555555555555557)"/><path d="M1200 386a6 6 0 0 1 6-6h88a6 6 0 0 1 6 6v528a6 6 0 0 1-6 6h-88a6 6 0 0 1-6-6z" stroke="#3a414a" stroke-width="2" fill="#fff"/><use xlink:href="#e" transform="matrix(1,0,0,1,1212,392) translate(18.308641975308646 19.555555555555557)"/><path d="M462 610h92a6 6 0 0 0 6-6V496a6 6 0 0 1 6-6h74.5" stroke="#3a414a" stroke-width="2" fill="none"/><path d="M462.03 610.98H461V609h1.03z" stroke="#3a414a" stroke-width=".05" fill="#3a414a"/><path d="M655.76 490l-14.26 4.63v-9.26z" stroke="#3a414a" stroke-width="2" fill="#3a414a"/><path d="M660 466a6 6 0 0 1 6-6h228a6 6 0 0 1 6 6v48a6 6 0 0 1-6 6H666a6 6 0 0 1-6-6z" stroke="#3a414a" stroke-width="2" fill="#fff"/><use xlink:href="#f" transform="matrix(1,0,0,1,672,472) translate(23.225308641975303 21.805555555555557)"/><use xlink:href="#g" transform="matrix(1,0,0,1,672,472) translate(69.39814814814815 21.805555555555557)"/><use xlink:href="#h" transform="matrix(1,0,0,1,672,472) translate(105.92901234567901 21.805555555555557)"/><use xlink:href="#i" transform="matrix(1,0,0,1,672,472) translate(133.0895061728395 21.805555555555557)"/><path d="M973.1 490.98H902v-1.96h71.1zm207.4 0h-128.85v-1.96h128.85z" stroke="#3a414a" stroke-width=".05" fill="#3a414a"/><path d="M902.03 490.98H901v-1.96h1.03z" fill="#3a414a"/><path stroke="#3a414a" stroke-width=".05" fill="#3a414a"/><path d="M1195.76 490l-14.26 4.63v-9.26z" fill="#3a414a"/><path d="M1198.92 490l-18.4 5.98v-11.96zm-16.45 3.3l10.14-3.3-10.13-3.3z" stroke="#3a414a" stroke-width=".05" fill="#3a414a"/><use xlink:href="#j" transform="matrix(1,0,0,1,973.0914776565933,472.6666666666667) translate(0.005000000000002558 23.1111111111111)"/><path d="M660 626a6 6 0 0 1 6-6h228a6 6 0 0 1 6 6v48a6 6 0 0 1-6 6H666a6 6 0 0 1-6-6z" stroke="#3a414a" stroke-width="2" fill="#fff"/><use xlink:href="#k" transform="matrix(1,0,0,1,672,632) translate(25.296296296296305 21.805555555555557)"/><use xlink:href="#h" transform="matrix(1,0,0,1,672,632) translate(70.04320987654322 21.805555555555557)"/><use xlink:href="#l" transform="matrix(1,0,0,1,672,632) translate(97.20370370370371 21.805555555555557)"/><path d="M970 650.98h-68V649h68zm210.5 0h-92V649h92z" stroke="#3a414a" stroke-width=".05" fill="#3a414a"/><path d="M902.03 650.98H901V649h1.03z" fill="#3a414a"/><path stroke="#3a414a" stroke-width=".05" fill="#3a414a"/><path d="M1195.76 650l-14.26 4.63v-9.26z" fill="#3a414a"/><path d="M1198.92 650l-18.4 5.98v-11.96zm-16.45 3.3l10.14-3.3-10.13-3.3z" stroke="#3a414a" stroke-width=".05" fill="#3a414a"/><use xlink:href="#m" transform="matrix(1,0,0,1,969.9870799601987,632.6666666666666) translate(0.005000000000002558 23.11111111111111)"/><path d="M462 610h92a6 6 0 0 0 6-6v-28a6 6 0 0 1 6-6h74.5" stroke="#3a414a" stroke-width="2" fill="none"/><path d="M462.03 610.98H461V609h1.03z" stroke="#3a414a" stroke-width=".05" fill="#3a414a"/><path d="M655.76 570l-14.26 4.63v-9.26z" stroke="#3a414a" stroke-width="2" fill="#3a414a"/><path d="M660 546a6 6 0 0 1 6-6h228a6 6 0 0 1 6 6v48a6 6 0 0 1-6 6H666a6 6 0 0 1-6-6z" stroke="#3a414a" stroke-width="2" fill="#fff"/><use xlink:href="#n" transform="matrix(1,0,0,1,672,552) translate(36.12654320987656 21.805555555555557)"/><use xlink:href="#o" transform="matrix(1,0,0,1,672,552) translate(57.85493827160495 21.805555555555557)"/><use xlink:href="#p" transform="matrix(1,0,0,1,672,552) translate(132.4104938271605 21.805555555555557)"/><path d="M968.42 570.98H902V569h66.42zm212.08-2.5h-95.08v-1.96h95.08z" stroke="#3a414a" stroke-width=".05" fill="#3a414a"/><path d="M902.03 570.98H901V569h1.03z" fill="#3a414a"/><path stroke="#3a414a" stroke-width=".05" fill="#3a414a"/><path d="M1195.76 567.5l-14.26 4.63v-9.26z" fill="#3a414a"/><path d="M1198.92 567.5l-18.4 5.98v-11.96zm-16.45 3.3l10.14-3.3-10.13-3.3z" stroke="#3a414a" stroke-width=".05" fill="#3a414a"/><use xlink:href="#q" transform="matrix(1,0,0,1,968.4216109507556,552.6666666666666) translate(0.005000000000002558 23.11111111111111)"/><path d="M462 610h92a6 6 0 0 1 6 6v28a6 6 0 0 0 6 6h74.5" stroke="#3a414a" stroke-width="2" fill="none"/><path d="M462.03 610.98H461V609h1.03z" stroke="#3a414a" stroke-width=".05" fill="#3a414a"/><path d="M655.76 650l-14.26 4.63v-9.26z" stroke="#3a414a" stroke-width="2" fill="#3a414a"/><path d="M1310 650h70.5" stroke="#3a414a" stroke-width="2" fill="none"/><path d="M1302.96 650l12.92-7.64v15.28zM1395.76 650l-14.26 4.63v-9.26z" stroke="#3a414a" stroke-width="2" fill="#3a414a"/><path d="M660 706a6 6 0 0 1 6-6h228a6 6 0 0 1 6 6v39.33a6 6 0 0 1-6 6H666a6 6 0 0 1-6-6z" stroke="#3a414a" stroke-width="2" fill="#fff"/><use xlink:href="#r" transform="matrix(1,0,0,1,672,712) translate(30.083333333333343 21.305555555555557)"/><use xlink:href="#s" transform="matrix(1,0,0,1,672,712) translate(104.63888888888889 21.305555555555557)"/><path d="M470 610h84a6 6 0 0 1 6 6v109.32a6 6 0 0 0 6 6h74.5" stroke="#3a414a" stroke-width="2" fill="none"/><path d="M462.96 610l12.92-7.64v15.28zM655.76 731.32l-14.26 4.64v-9.27z" stroke="#3a414a" stroke-width="2" fill="#3a414a"/><path d="M973.12 726.64H902v-1.95h71.12zm207.38 0h-53.62v-1.95h53.62z" stroke="#3a414a" stroke-width=".05" fill="#3a414a"/><path d="M902.03 726.64H901v-1.95h1.03z" fill="#3a414a"/><path stroke="#3a414a" stroke-width=".05" fill="#3a414a"/><path d="M1195.76 725.67l-14.26 4.63v-9.27z" fill="#3a414a"/><path d="M1198.92 725.67l-18.4 5.97V719.7zm-16.45 3.3l10.14-3.3-10.13-3.3z" stroke="#3a414a" stroke-width=".05" fill="#3a414a"/><g><use xlink:href="#t" transform="matrix(1,0,0,1,973.1234639555292,708.3333333726082) translate(0.0049999999999954525 23.11111111111111)"/></g><path d="M360.3 634.08v-83.16c0-4.08-3.68-10.92-8.3-10.92H208c-4.62 0-9.06 6.84-9.06 10.92v83.16c-16.22 17.28-15.44 17.28-15.44 17.28 0 4.92 4.44 8.64 10.23 8.64h172.54c5.8 0 10.23-4.08 10.23-8.64l-16.2-17.28zM293.3 652.8h-30.1c-1.56 0-3.1-.72-3.1-1.44l3.47-5.64c0-.72 1.15-1.2 2.7-1.2h23.93c1.16 0 2.3.48 2.3 1.2l3.88 5.64c0 1.08-1.54 1.44-3.08 1.44zm59.83-19.2H206.08v-81.96c0-1.92 1.93-4.56 4.05-4.56h139.35c2.13 0 3.67 2.64 3.67 4.56v81.96z" stroke="#000" stroke-opacity="0" fill="#2a3282"/><g><use xlink:href="#u" transform="matrix(1,0,0,1,153.4962925725776,669) translate(59.925 14.4)"/><use xlink:href="#v" transform="matrix(1,0,0,1,153.4962925725776,669) translate(115.225 14.4)"/></g><path d="M1140 220h120v120h-120V220z" stroke="#fff" stroke-opacity="0" stroke-width="2" fill="#d86613"/><path d="M1224.54 305.6h-47.57c-7.83 0-16.46-5.7-16.94-14.15v-1.02-.67-.15-.35c.24-6.26 4.3-11.44 10.4-13.13v-1.18c.23-11.63 9.9-20.86 21.5-20.6 5.75.15 10.62 2.25 14.62 6.35 2.08 2.1 3.6 4.15 4.8 6.8 1.76-1.37 3.67-2.04 5.9-2 4.57 0 9.3 3.2 10.16 10.26 7.7 1.85 12 6.62 12.56 13.44V290.58c0 13.94-11.75 15.02-15.42 15.02zm-61.32-14.4v.1c.4 6.56 7.52 11.12 13.75 11.12h47.57c3.67 0 11.9-1.13 12.23-11.23h-22.7c.24.66.32 1.28.32 1.94h-.02c-.16 3.6-3.27 6.4-6.87 6.2-3.35-.15-6-2.8-6.15-6.2 0-.66.08-1.28.32-1.94h-15.74c-.64 0-1.28-.36-1.52-1.03-.23-.62-.07-1.28.4-1.74.73-.62 1.05-1.44 1.05-2.4-.08-1.65-1.44-3-3.12-3.1-1.76-.1-3.36 1.3-3.52 3.1 0 .96.33 1.78 1.05 2.4.48.46.64 1.13.4 1.74-.24.67-.88 1.02-1.52 1.02zm33.58-3.18h7.67c.88 0 1.6.7 1.6 1.6 0 .45-.16.8-.48 1.1-.73.68-1.05 1.5-1.05 2.42.16 1.7 1.44 2.98 3.12 3.08 1.84.15 3.44-1.23 3.52-3.08 0-.92-.33-1.74-1.05-2.4-.48-.47-.64-1.13-.32-1.75.24-.63.8-.98 1.44-.98h25.34c-.95-4.98-4.63-8.1-11.02-9.38-.72-.16-1.2-.77-1.28-1.5-.32-6.25-4-8.45-6.96-8.45-2.16 0-4 .9-5.2 2.6-.55.72-1.6.88-2.23.3-.3-.2-.47-.4-.55-.7-1.12-3.13-2.64-5.54-5.04-7.9-2.15-2.2-4.54-3.64-7.5-4.6v12.14c.64-.2 1.28-.3 1.92-.3 3.67 0 6.55 2.9 6.55 6.55 0 3.58-2.88 6.5-6.55 6.5-.64 0-1.28-.1-1.92-.3zm-8 0h4.8v-7.85c0-.87.72-1.6 1.6-1.6.48 0 .88.17 1.2.53.64.66 1.44 1.02 2.4 1.02 1.84 0 3.27-1.5 3.27-3.33 0-1.86-1.43-3.34-3.27-3.34-.96 0-1.76.36-2.4 1.02-.64.67-1.6.67-2.24.1-.4-.3-.56-.7-.56-1.17v-15.68c-3.36-.36-6.3.05-9.43 1.38-6.4 2.93-10.32 8.82-10.56 15.84h.02c0 .77 0 1.4.08 2.16.15.82-.4 1.53-1.2 1.74-4.72.87-8.24 4.4-9.12 9.18h12.87c-.16-.67-.24-1.28-.24-2 .17-3.6 3.2-6.36 6.8-6.2 3.45.2 6.08 2.8 6.24 6.2 0 .72-.08 1.33-.32 2z" stroke="#fff" stroke-opacity="0" stroke-width="2" fill="#fff"/><defs><path fill="#3a414a" d="M67-125c0 53 21 87 73 88 37 1 54-22 65-47l45 17C233-25 199 4 140 4 58 4 20-42 15-125 8-235 124-281 211-232c18 10 29 29 36 50l-46 12c-8-25-30-41-62-41-52 0-71 34-72 86" id="w"/><path fill="#3a414a" d="M25 0v-261h50V0H25" id="x"/><path fill="#3a414a" d="M110-194c64 0 96 36 96 99 0 64-35 99-97 99-61 0-95-36-95-99 0-62 34-99 96-99zm-1 164c35 0 45-28 45-65 0-40-10-65-43-65-34 0-45 26-45 65 0 36 10 65 43 65" id="y"/><path fill="#3a414a" d="M85 4C-2 5 27-109 22-190h50c7 57-23 150 33 157 60-5 35-97 40-157h50l1 190h-47c-2-12 1-28-3-38-12 25-28 42-61 42" id="z"/><path fill="#3a414a" d="M88-194c31-1 46 15 58 34l-1-101h50l1 261h-48c-2-10 0-23-3-31C134-8 116 4 84 4 32 4 16-41 15-95c0-56 19-97 73-99zm17 164c33 0 40-30 41-66 1-37-9-64-41-64s-38 30-39 65c0 43 13 65 39 65" id="A"/><g id="a"><use transform="matrix(0.06790123456790123,0,0,0.06790123456790123,0,0)" xlink:href="#w"/><use transform="matrix(0.06790123456790123,0,0,0.06790123456790123,17.586419753086417,0)" xlink:href="#x"/><use transform="matrix(0.06790123456790123,0,0,0.06790123456790123,24.37654320987654,0)" xlink:href="#y"/><use transform="matrix(0.06790123456790123,0,0,0.06790123456790123,39.24691358024691,0)" xlink:href="#z"/><use transform="matrix(0.06790123456790123,0,0,0.06790123456790123,54.11728395061728,0)" xlink:href="#A"/></g><path fill="#3a414a" d="M169-182c-1-43-94-46-97-3 18 66 151 10 154 114 3 95-165 93-204 36-6-8-10-19-12-30l50-8c3 46 112 56 116 5-17-69-150-10-154-114-4-87 153-88 188-35 5 8 8 18 10 28" id="B"/><path fill="#3a414a" d="M185-48c-13 30-37 53-82 52C43 2 14-33 14-96s30-98 90-98c62 0 83 45 84 108H66c0 31 8 55 39 56 18 0 30-7 34-22zm-45-69c5-46-57-63-70-21-2 6-4 13-4 21h74" id="C"/><path fill="#3a414a" d="M135-150c-39-12-60 13-60 57V0H25l-1-190h47c2 13-1 29 3 40 6-28 27-53 61-41v41" id="D"/><path fill="#3a414a" d="M128 0H69L1-190h53L99-40l48-150h52" id="E"/><path fill="#3a414a" d="M25-224v-37h50v37H25zM25 0v-190h50V0H25" id="F"/><path fill="#3a414a" d="M190-63c-7 42-38 67-86 67-59 0-84-38-90-98-12-110 154-137 174-36l-49 2c-2-19-15-32-35-32-30 0-35 28-38 64-6 74 65 87 74 30" id="G"/><g id="b"><use transform="matrix(0.06790123456790123,0,0,0.06790123456790123,0,0)" xlink:href="#B"/><use transform="matrix(0.06790123456790123,0,0,0.06790123456790123,16.296296296296294,0)" xlink:href="#C"/><use transform="matrix(0.06790123456790123,0,0,0.06790123456790123,29.87654320987654,0)" xlink:href="#D"/><use transform="matrix(0.06790123456790123,0,0,0.06790123456790123,39.382716049382715,0)" xlink:href="#E"/><use transform="matrix(0.06790123456790123,0,0,0.06790123456790123,52.96296296296296,0)" xlink:href="#F"/><use transform="matrix(0.06790123456790123,0,0,0.06790123456790123,59.75308641975309,0)" xlink:href="#G"/><use transform="matrix(0.06790123456790123,0,0,0.06790123456790123,73.33333333333334,0)" xlink:href="#C"/></g><path fill="#3a414a" d="M275 0h-61l-44-196L126 0H64L0-248h53L97-49l45-199h58l43 199 44-199h52" id="H"/><path fill="#3a414a" d="M135-194c52 0 70 43 70 98 0 56-19 99-73 100-30 1-46-15-58-35L72 0H24l1-261h50v104c11-23 29-37 60-37zM114-30c31 0 40-27 40-66 0-37-7-63-39-63s-41 28-41 65c0 36 8 64 40 64" id="I"/><path fill="#3a414a" d="M137-138c1-29-70-34-71-4 15 46 118 7 119 86 1 83-164 76-172 9l43-7c4 19 20 25 44 25 33 8 57-30 24-41C81-84 22-81 20-136c-2-80 154-74 161-7" id="J"/><path fill="#3a414a" d="M115-3C79 11 28 4 28-45v-112H4v-33h27l15-45h31v45h36v33H77v99c-1 23 16 31 38 25v30" id="K"/><g id="c"><use transform="matrix(0.06790123456790123,0,0,0.06790123456790123,0,0)" xlink:href="#H"/><use transform="matrix(0.06790123456790123,0,0,0.06790123456790123,22.543209876543205,0)" xlink:href="#C"/><use transform="matrix(0.06790123456790123,0,0,0.06790123456790123,36.123456790123456,0)" xlink:href="#I"/><use transform="matrix(0.06790123456790123,0,0,0.06790123456790123,50.99382716049382,0)" xlink:href="#J"/><use transform="matrix(0.06790123456790123,0,0,0.06790123456790123,64.57407407407408,0)" xlink:href="#F"/><use transform="matrix(0.06790123456790123,0,0,0.06790123456790123,71.3641975308642,0)" xlink:href="#K"/><use transform="matrix(0.06790123456790123,0,0,0.06790123456790123,79.44444444444446,0)" xlink:href="#C"/></g><path fill="#3a414a" d="M185-189c-5-48-123-54-124 2 14 75 158 14 163 119 3 78-121 87-175 55-17-10-28-26-33-46l33-7c5 56 141 63 141-1 0-78-155-14-162-118-5-82 145-84 179-34 5 7 8 16 11 25" id="L"/><path fill="#3a414a" d="M100-194c63 0 86 42 84 106H49c0 40 14 67 53 68 26 1 43-12 49-29l28 8c-11 28-37 45-77 45C44 4 14-33 15-96c1-61 26-98 85-98zm52 81c6-60-76-77-97-28-3 7-6 17-6 28h103" id="M"/><path fill="#3a414a" d="M114-163C36-179 61-72 57 0H25l-1-190h30c1 12-1 29 2 39 6-27 23-49 58-41v29" id="N"/><path fill="#3a414a" d="M108 0H70L1-190h34L89-25l56-165h34" id="O"/><g id="d"><use transform="matrix(0.06790123456790123,0,0,0.06790123456790123,0,0)" xlink:href="#L"/><use transform="matrix(0.06790123456790123,0,0,0.06790123456790123,16.296296296296294,0)" xlink:href="#M"/><use transform="matrix(0.06790123456790123,0,0,0.06790123456790123,29.87654320987654,0)" xlink:href="#N"/><use transform="matrix(0.06790123456790123,0,0,0.06790123456790123,37.95679012345679,0)" xlink:href="#O"/><use transform="matrix(0.06790123456790123,0,0,0.06790123456790123,50.179012345679,0)" xlink:href="#M"/><use transform="matrix(0.06790123456790123,0,0,0.06790123456790123,63.75925925925925,0)" xlink:href="#N"/></g><path fill="#3a414a" d="M205 0l-28-72H64L36 0H1l101-248h38L239 0h-34zm-38-99l-47-123c-12 45-31 82-46 123h93" id="P"/><path fill="#3a414a" d="M30-248c87 1 191-15 191 75 0 78-77 80-158 76V0H30v-248zm33 125c57 0 124 11 124-50 0-59-68-47-124-48v98" id="Q"/><path fill="#3a414a" d="M33 0v-248h34V0H33" id="R"/><g id="e"><use transform="matrix(0.06790123456790123,0,0,0.06790123456790123,0,0)" xlink:href="#P"/><use transform="matrix(0.06790123456790123,0,0,0.06790123456790123,16.296296296296294,0)" xlink:href="#Q"/><use transform="matrix(0.06790123456790123,0,0,0.06790123456790123,32.59259259259259,0)" xlink:href="#R"/></g><path fill="#3a414a" d="M143 4C61 4 22-44 18-125c-5-107 100-154 193-111 17 8 29 25 37 43l-32 9c-13-25-37-40-76-40-61 0-88 39-88 99 0 61 29 100 91 101 35 0 62-11 79-27v-45h-74v-28h105v86C228-13 192 4 143 4" id="S"/><path fill="#3a414a" d="M59-47c-2 24 18 29 38 22v24C64 9 27 4 27-40v-127H5v-23h24l9-43h21v43h35v23H59v120" id="T"/><g id="f"><use transform="matrix(0.06790123456790123,0,0,0.06790123456790123,0,0)" xlink:href="#S"/><use transform="matrix(0.06790123456790123,0,0,0.06790123456790123,19.012345679012345,0)" xlink:href="#M"/><use transform="matrix(0.06790123456790123,0,0,0.06790123456790123,32.592592592592595,0)" xlink:href="#T"/></g><path fill="#3a414a" d="M24 0v-261h32V0H24" id="U"/><path fill="#3a414a" d="M24-231v-30h32v30H24zM24 0v-190h32V0H24" id="V"/><path fill="#3a414a" d="M135-143c-3-34-86-38-87 0 15 53 115 12 119 90S17 21 10-45l28-5c4 36 97 45 98 0-10-56-113-15-118-90-4-57 82-63 122-42 12 7 21 19 24 35" id="W"/><g id="g"><use transform="matrix(0.06790123456790123,0,0,0.06790123456790123,0,0)" xlink:href="#U"/><use transform="matrix(0.06790123456790123,0,0,0.06790123456790123,5.364197530864197,0)" xlink:href="#V"/><use transform="matrix(0.06790123456790123,0,0,0.06790123456790123,10.728395061728394,0)" xlink:href="#W"/><use transform="matrix(0.06790123456790123,0,0,0.06790123456790123,22.950617283950614,0)" xlink:href="#T"/></g><path fill="#3a414a" d="M100-194c62-1 85 37 85 99 1 63-27 99-86 99S16-35 15-95c0-66 28-99 85-99zM99-20c44 1 53-31 53-75 0-43-8-75-51-75s-53 32-53 75 10 74 51 75" id="X"/><path fill="#3a414a" d="M101-234c-31-9-42 10-38 44h38v23H63V0H32v-167H5v-23h27c-7-52 17-82 69-68v24" id="Y"/><g id="h"><use transform="matrix(0.06790123456790123,0,0,0.06790123456790123,0,0)" xlink:href="#X"/><use transform="matrix(0.06790123456790123,0,0,0.06790123456790123,13.580246913580247,0)" xlink:href="#Y"/></g><path fill="#3a414a" d="M84 4C-5 8 30-112 23-190h32v120c0 31 7 50 39 49 72-2 45-101 50-169h31l1 190h-30c-1-10 1-25-2-33-11 22-28 36-60 37" id="Z"/><g id="i"><use transform="matrix(0.06790123456790123,0,0,0.06790123456790123,0,0)" xlink:href="#Z"/><use transform="matrix(0.06790123456790123,0,0,0.06790123456790123,13.580246913580247,0)" xlink:href="#W"/><use transform="matrix(0.06790123456790123,0,0,0.06790123456790123,25.80246913580247,0)" xlink:href="#M"/><use transform="matrix(0.06790123456790123,0,0,0.06790123456790123,39.382716049382715,0)" xlink:href="#N"/><use transform="matrix(0.06790123456790123,0,0,0.06790123456790123,47.46296296296296,0)" xlink:href="#W"/></g><path fill="#333" d="M0 4l72-265h28L28 4H0" id="aa"/><path fill="#333" d="M84 4C-5 8 30-112 23-190h32v120c0 31 7 50 39 49 72-2 45-101 50-169h31l1 190h-30c-1-10 1-25-2-33-11 22-28 36-60 37" id="ab"/><path fill="#333" d="M135-143c-3-34-86-38-87 0 15 53 115 12 119 90S17 21 10-45l28-5c4 36 97 45 98 0-10-56-113-15-118-90-4-57 82-63 122-42 12 7 21 19 24 35" id="ac"/><path fill="#333" d="M100-194c63 0 86 42 84 106H49c0 40 14 67 53 68 26 1 43-12 49-29l28 8c-11 28-37 45-77 45C44 4 14-33 15-96c1-61 26-98 85-98zm52 81c6-60-76-77-97-28-3 7-6 17-6 28h103" id="ad"/><path fill="#333" d="M114-163C36-179 61-72 57 0H25l-1-190h30c1 12-1 29 2 39 6-27 23-49 58-41v29" id="ae"/><g id="j"><use transform="matrix(0.08024691358024688,0,0,0.08024691358024688,0,0)" xlink:href="#aa"/><use transform="matrix(0.08024691358024688,0,0,0.08024691358024688,8.024691358024688,0)" xlink:href="#ab"/><use transform="matrix(0.08024691358024688,0,0,0.08024691358024688,24.07407407407406,0)" xlink:href="#ac"/><use transform="matrix(0.08024691358024688,0,0,0.08024691358024688,38.518518518518505,0)" xlink:href="#ad"/><use transform="matrix(0.08024691358024688,0,0,0.08024691358024688,54.56790123456789,0)" xlink:href="#ae"/><use transform="matrix(0.08024691358024688,0,0,0.08024691358024688,64.11728395061726,0)" xlink:href="#ac"/></g><path fill="#3a414a" d="M30 0v-248h33v221h125V0H30" id="af"/><g id="k"><use transform="matrix(0.06790123456790123,0,0,0.06790123456790123,0,0)" xlink:href="#af"/><use transform="matrix(0.06790123456790123,0,0,0.06790123456790123,13.580246913580247,0)" xlink:href="#V"/><use transform="matrix(0.06790123456790123,0,0,0.06790123456790123,18.944444444444443,0)" xlink:href="#W"/><use transform="matrix(0.06790123456790123,0,0,0.06790123456790123,31.166666666666664,0)" xlink:href="#T"/></g><path fill="#3a414a" d="M177-190C167-65 218 103 67 71c-23-6-38-20-44-43l32-5c15 47 100 32 89-28v-30C133-14 115 1 83 1 29 1 15-40 15-95c0-56 16-97 71-98 29-1 48 16 59 35 1-10 0-23 2-32h30zM94-22c36 0 50-32 50-73 0-42-14-75-50-75-39 0-46 34-46 75s6 73 46 73" id="ag"/><g id="l"><use transform="matrix(0.06790123456790123,0,0,0.06790123456790123,0,0)" xlink:href="#N"/><use transform="matrix(0.06790123456790123,0,0,0.06790123456790123,8.080246913580247,0)" xlink:href="#M"/><use transform="matrix(0.06790123456790123,0,0,0.06790123456790123,21.660493827160494,0)" xlink:href="#ag"/><use transform="matrix(0.06790123456790123,0,0,0.06790123456790123,35.24074074074074,0)" xlink:href="#V"/><use transform="matrix(0.06790123456790123,0,0,0.06790123456790123,40.60493827160494,0)" xlink:href="#W"/><use transform="matrix(0.06790123456790123,0,0,0.06790123456790123,52.82716049382716,0)" xlink:href="#T"/><use transform="matrix(0.06790123456790123,0,0,0.06790123456790123,59.61728395061728,0)" xlink:href="#M"/><use transform="matrix(0.06790123456790123,0,0,0.06790123456790123,73.19753086419752,0)" xlink:href="#N"/><use transform="matrix(0.06790123456790123,0,0,0.06790123456790123,81.27777777777777,0)" xlink:href="#W"/></g><path fill="#333" d="M177-190C167-65 218 103 67 71c-23-6-38-20-44-43l32-5c15 47 100 32 89-28v-30C133-14 115 1 83 1 29 1 15-40 15-95c0-56 16-97 71-98 29-1 48 16 59 35 1-10 0-23 2-32h30zM94-22c36 0 50-32 50-73 0-42-14-75-50-75-39 0-46 34-46 75s6 73 46 73" id="ah"/><path fill="#333" d="M24-231v-30h32v30H24zM24 0v-190h32V0H24" id="ai"/><path fill="#333" d="M59-47c-2 24 18 29 38 22v24C64 9 27 4 27-40v-127H5v-23h24l9-43h21v43h35v23H59v120" id="aj"/><g id="m"><use transform="matrix(0.08024691358024691,0,0,0.08024691358024691,0,0)" xlink:href="#aa"/><use transform="matrix(0.08024691358024691,0,0,0.08024691358024691,8.024691358024691,0)" xlink:href="#ae"/><use transform="matrix(0.08024691358024691,0,0,0.08024691358024691,17.574074074074076,0)" xlink:href="#ad"/><use transform="matrix(0.08024691358024691,0,0,0.08024691358024691,33.623456790123456,0)" xlink:href="#ah"/><use transform="matrix(0.08024691358024691,0,0,0.08024691358024691,49.672839506172835,0)" xlink:href="#ai"/><use transform="matrix(0.08024691358024691,0,0,0.08024691358024691,56.01234567901234,0)" xlink:href="#ac"/><use transform="matrix(0.08024691358024691,0,0,0.08024691358024691,70.45679012345678,0)" xlink:href="#aj"/><use transform="matrix(0.08024691358024691,0,0,0.08024691358024691,78.48148148148148,0)" xlink:href="#ad"/><use transform="matrix(0.08024691358024691,0,0,0.08024691358024691,94.53086419753086,0)" xlink:href="#ae"/><use transform="matrix(0.08024691358024691,0,0,0.08024691358024691,104.08024691358024,0)" xlink:href="#ac"/></g><use transform="matrix(0.06790123456790123,0,0,0.06790123456790123,0,0)" xlink:href="#P" id="n"/><path fill="#3a414a" d="M117-194c89-4 53 116 60 194h-32v-121c0-31-8-49-39-48C34-167 62-67 57 0H25l-1-190h30c1 10-1 24 2 32 11-22 29-35 61-36" id="ak"/><g id="o"><use transform="matrix(0.06790123456790123,0,0,0.06790123456790123,0,0)" xlink:href="#L"/><use transform="matrix(0.06790123456790123,0,0,0.06790123456790123,16.296296296296294,0)" xlink:href="#V"/><use transform="matrix(0.06790123456790123,0,0,0.06790123456790123,21.66049382716049,0)" xlink:href="#ak"/><use transform="matrix(0.06790123456790123,0,0,0.06790123456790123,35.24074074074073,0)" xlink:href="#ag"/><use transform="matrix(0.06790123456790123,0,0,0.06790123456790123,48.82098765432098,0)" xlink:href="#U"/><use transform="matrix(0.06790123456790123,0,0,0.06790123456790123,54.185185185185176,0)" xlink:href="#M"/></g><g id="p"><use transform="matrix(0.06790123456790123,0,0,0.06790123456790123,0,0)" xlink:href="#Z"/><use transform="matrix(0.06790123456790123,0,0,0.06790123456790123,13.580246913580247,0)" xlink:href="#W"/><use transform="matrix(0.06790123456790123,0,0,0.06790123456790123,25.80246913580247,0)" xlink:href="#M"/><use transform="matrix(0.06790123456790123,0,0,0.06790123456790123,39.382716049382715,0)" xlink:href="#N"/></g><path fill="#333" d="M33-154v-36h34v36H33zM33 0v-36h34V0H33" id="al"/><path fill="#333" d="M85-194c31 0 48 13 60 33l-1-100h32l1 261h-30c-2-10 0-23-3-31C134-8 116 4 85 4 32 4 16-35 15-94c0-66 23-100 70-100zm9 24c-40 0-46 34-46 75 0 40 6 74 45 74 42 0 51-32 51-76 0-42-9-74-50-73" id="am"/><g id="q"><use transform="matrix(0.08024691358024691,0,0,0.08024691358024691,0,0)" xlink:href="#aa"/><use transform="matrix(0.08024691358024691,0,0,0.08024691358024691,8.024691358024691,0)" xlink:href="#ab"/><use transform="matrix(0.08024691358024691,0,0,0.08024691358024691,24.074074074074076,0)" xlink:href="#ac"/><use transform="matrix(0.08024691358024691,0,0,0.08024691358024691,38.51851851851852,0)" xlink:href="#ad"/><use transform="matrix(0.08024691358024691,0,0,0.08024691358024691,54.5679012345679,0)" xlink:href="#ae"/><use transform="matrix(0.08024691358024691,0,0,0.08024691358024691,64.11728395061728,0)" xlink:href="#ac"/><use transform="matrix(0.08024691358024691,0,0,0.08024691358024691,78.56172839506172,0)" xlink:href="#aa"/><use transform="matrix(0.08024691358024691,0,0,0.08024691358024691,86.58641975308642,0)" xlink:href="#al"/><use transform="matrix(0.08024691358024691,0,0,0.08024691358024691,94.6111111111111,0)" xlink:href="#ai"/><use transform="matrix(0.08024691358024691,0,0,0.08024691358024691,100.9506172839506,0)" xlink:href="#am"/></g><g id="r"><use transform="matrix(0.06790123456790123,0,0,0.06790123456790123,0,0)" xlink:href="#L"/><use transform="matrix(0.06790123456790123,0,0,0.06790123456790123,16.296296296296294,0)" xlink:href="#V"/><use transform="matrix(0.06790123456790123,0,0,0.06790123456790123,21.66049382716049,0)" xlink:href="#ak"/><use transform="matrix(0.06790123456790123,0,0,0.06790123456790123,35.24074074074073,0)" xlink:href="#ag"/><use transform="matrix(0.06790123456790123,0,0,0.06790123456790123,48.82098765432098,0)" xlink:href="#U"/><use transform="matrix(0.06790123456790123,0,0,0.06790123456790123,54.185185185185176,0)" xlink:href="#M"/></g><g id="s"><use transform="matrix(0.06790123456790123,0,0,0.06790123456790123,0,0)" xlink:href="#N"/><use transform="matrix(0.06790123456790123,0,0,0.06790123456790123,8.080246913580247,0)" xlink:href="#M"/><use transform="matrix(0.06790123456790123,0,0,0.06790123456790123,21.660493827160494,0)" xlink:href="#ag"/><use transform="matrix(0.06790123456790123,0,0,0.06790123456790123,35.24074074074074,0)" xlink:href="#V"/><use transform="matrix(0.06790123456790123,0,0,0.06790123456790123,40.60493827160494,0)" xlink:href="#W"/><use transform="matrix(0.06790123456790123,0,0,0.06790123456790123,52.82716049382716,0)" xlink:href="#T"/><use transform="matrix(0.06790123456790123,0,0,0.06790123456790123,59.61728395061728,0)" xlink:href="#M"/><use transform="matrix(0.06790123456790123,0,0,0.06790123456790123,73.19753086419752,0)" xlink:href="#N"/></g><path fill="#333" d="M39-94c74 12-11 154 75 146v23c-44 4-70-10-70-52C44-23 55-84 6-82v-22c81 4-7-162 84-157h24v23c-82-15-2 131-75 144" id="an"/><path fill="#333" d="M76-40C78 24 84 88 6 75V52C86 64 9-79 80-94c-40-6-34-59-34-106 1-29-11-41-40-38v-23c44-4 70 10 70 52 0 47-12 108 38 105v22c-26 1-39 14-38 42" id="ao"/><g id="t"><use transform="matrix(0.08024691358024691,0,0,0.08024691358024691,0,0)" xlink:href="#aa"/><use transform="matrix(0.08024691358024691,0,0,0.08024691358024691,8.024691358024691,0)" xlink:href="#ae"/><use transform="matrix(0.08024691358024691,0,0,0.08024691358024691,17.574074074074076,0)" xlink:href="#ad"/><use transform="matrix(0.08024691358024691,0,0,0.08024691358024691,33.623456790123456,0)" xlink:href="#ah"/><use transform="matrix(0.08024691358024691,0,0,0.08024691358024691,49.672839506172835,0)" xlink:href="#ai"/><use transform="matrix(0.08024691358024691,0,0,0.08024691358024691,56.01234567901234,0)" xlink:href="#ac"/><use transform="matrix(0.08024691358024691,0,0,0.08024691358024691,70.45679012345678,0)" xlink:href="#aj"/><use transform="matrix(0.08024691358024691,0,0,0.08024691358024691,78.48148148148148,0)" xlink:href="#ad"/><use transform="matrix(0.08024691358024691,0,0,0.08024691358024691,94.53086419753086,0)" xlink:href="#ae"/><use transform="matrix(0.08024691358024691,0,0,0.08024691358024691,104.08024691358024,0)" xlink:href="#aa"/><use transform="matrix(0.08024691358024691,0,0,0.08024691358024691,112.10493827160494,0)" xlink:href="#an"/><use transform="matrix(0.08024691358024691,0,0,0.08024691358024691,121.73456790123456,0)" xlink:href="#ai"/><use transform="matrix(0.08024691358024691,0,0,0.08024691358024691,128.07407407407408,0)" xlink:href="#am"/><use transform="matrix(0.08024691358024691,0,0,0.08024691358024691,144.12345679012347,0)" xlink:href="#ao"/></g><path d="M232-93c-1 65-40 97-104 97C67 4 28-28 28-90v-158h33c8 89-33 224 67 224 102 0 64-133 71-224h33v155" id="ap"/><path d="M135-143c-3-34-86-38-87 0 15 53 115 12 119 90S17 21 10-45l28-5c4 36 97 45 98 0-10-56-113-15-118-90-4-57 82-63 122-42 12 7 21 19 24 35" id="aq"/><path d="M100-194c63 0 86 42 84 106H49c0 40 14 67 53 68 26 1 43-12 49-29l28 8c-11 28-37 45-77 45C44 4 14-33 15-96c1-61 26-98 85-98zm52 81c6-60-76-77-97-28-3 7-6 17-6 28h103" id="ar"/><path d="M114-163C36-179 61-72 57 0H25l-1-190h30c1 12-1 29 2 39 6-27 23-49 58-41v29" id="as"/><path d="M47-170H22l-4-78h33" id="at"/><g id="u"><use transform="matrix(0.05,0,0,0.05,0,0)" xlink:href="#ap"/><use transform="matrix(0.05,0,0,0.05,12.950000000000001,0)" xlink:href="#aq"/><use transform="matrix(0.05,0,0,0.05,21.950000000000003,0)" xlink:href="#ar"/><use transform="matrix(0.05,0,0,0.05,31.950000000000003,0)" xlink:href="#as"/><use transform="matrix(0.05,0,0,0.05,37.900000000000006,0)" xlink:href="#at"/><use transform="matrix(0.05,0,0,0.05,41.300000000000004,0)" xlink:href="#aq"/></g><path d="M212-179c-10-28-35-45-73-45-59 0-87 40-87 99 0 60 29 101 89 101 43 0 62-24 78-52l27 14C228-24 195 4 139 4 59 4 22-46 18-125c-6-104 99-153 187-111 19 9 31 26 39 46" id="au"/><path d="M100-194c62-1 85 37 85 99 1 63-27 99-86 99S16-35 15-95c0-66 28-99 85-99zM99-20c44 1 53-31 53-75 0-43-8-75-51-75s-53 32-53 75 10 74 51 75" id="av"/><path d="M210-169c-67 3-38 105-44 169h-31v-121c0-29-5-50-35-48C34-165 62-65 56 0H25l-1-190h30c1 10-1 24 2 32 10-44 99-50 107 0 11-21 27-35 58-36 85-2 47 119 55 194h-31v-121c0-29-5-49-35-48" id="aw"/><path d="M115-194c55 1 70 41 70 98S169 2 115 4C84 4 66-9 55-30l1 105H24l-1-265h31l2 30c10-21 28-34 59-34zm-8 174c40 0 45-34 45-75s-6-73-45-74c-42 0-51 32-51 76 0 43 10 73 51 73" id="ax"/><path d="M84 4C-5 8 30-112 23-190h32v120c0 31 7 50 39 49 72-2 45-101 50-169h31l1 190h-30c-1-10 1-25-2-33-11 22-28 36-60 37" id="ay"/><path d="M59-47c-2 24 18 29 38 22v24C64 9 27 4 27-40v-127H5v-23h24l9-43h21v43h35v23H59v120" id="az"/><g id="v"><use transform="matrix(0.05,0,0,0.05,0,0)" xlink:href="#au"/><use transform="matrix(0.05,0,0,0.05,12.950000000000001,0)" xlink:href="#av"/><use transform="matrix(0.05,0,0,0.05,22.950000000000003,0)" xlink:href="#aw"/><use transform="matrix(0.05,0,0,0.05,37.900000000000006,0)" xlink:href="#ax"/><use transform="matrix(0.05,0,0,0.05,47.900000000000006,0)" xlink:href="#ay"/><use transform="matrix(0.05,0,0,0.05,57.900000000000006,0)" xlink:href="#az"/><use transform="matrix(0.05,0,0,0.05,62.900000000000006,0)" xlink:href="#ar"/><use transform="matrix(0.05,0,0,0.05,72.9,0)" xlink:href="#as"/></g></defs></g></svg>